<?xml version="1.0" encoding="UTF-8" standalone="no"?>
<svg width="69px" height="51px" viewBox="0 0 69 51" version="1.1" xmlns="http://www.w3.org/2000/svg" xmlns:xlink="http://www.w3.org/1999/xlink" xmlns:sketch="http://www.bohemiancoding.com/sketch/ns">
    <!-- Generator: Sketch 3.4.2 (15855) - http://www.bohemiancoding.com/sketch -->
    <title>logo</title>
    <desc>Created with Sketch.</desc>
    <defs></defs>
    <g id="Page-1" stroke="none" stroke-width="1" fill="none" fill-rule="evenodd" sketch:type="MSPage">
        <g id="logo" sketch:type="MSLayerGroup" transform="translate(0.000000, 1.000000)">
            <g id="Page-1" sketch:type="MSShapeGroup">
                <g id="logo">
                    <g id="Group">
                        <path d="M0.8,33.9 C0.8,33.4 1.2,32.9 1.8,32.9 L67.8,32.9 C68.3,32.9 68.8,33.3 68.8,33.9 C68.8,34.4 68.4,34.9 67.8,34.9 L58.8,34.9 L1.7,34.9 C1.2,34.9 0.8,34.4 0.8,33.9 L0.8,33.9 L0.8,33.9 Z M9.1,40 C8.6,40 8.1,40.5 8.1,41 C8.1,41.5 8.6,42 9.1,42 L58.1,42 C58.6,42 59.1,41.5 59.1,41 C59.1,40.5 58.6,40 58.1,40 L9.1,40 L9.1,40 L9.1,40 Z M27.9,47.7 C27.6,47.7 27.2,48.2 27.2,48.7 C27.2,49.2 27.5,49.7 27.9,49.7 L39.2,49.7 C39.6,49.7 39.9,49.2 39.9,48.7 C39.9,48.2 39.6,47.7 39.2,47.7 L27.9,47.7 L27.9,47.7 L27.9,47.7 Z" id="Fill-1" fill="#FFFFFF"></path>
                        <path d="M57.7,33.9 C58.7,31.3 59.2,28.4 59.2,25.4 C59.2,11.9 48.2,0.9 34.7,0.9 C21.2,0.9 10.2,11.9 10.2,25.4 C10.2,28.4 10.7,31.3 11.7,33.9 L57.7,33.9 L57.7,33.9 L57.7,33.9 Z" id="Shape" stroke="#FFFFFF" stroke-width="1.97"></path>
                    </g>
                </g>
            </g>
        </g>
    </g>
</svg>